<svg xmlns="http://www.w3.org/2000/svg" width="1000" height="1000" viewBox="0 0 1000 1000">
  <defs>
    <style>
      .cls-1, .cls-2 {
        fill: #009bdb;
      }

      .cls-2 {
        fill-rule: evenodd;
      }
    </style>
  </defs>
  <rect id="Retângulo_2" data-name="Retângulo 2" class="cls-1" x="688" y="258.469" width="49" height="482.531" rx="20" ry="20"/>
  <path id="Retângulo_2_copiar_3" data-name="Retângulo 2 copiar 3" class="cls-2" d="M812,444.856h9a20,20,0,0,1,20,20v70.738a20,20,0,0,1-20,20h-9a20,20,0,0,1-20-20V464.856A20,20,0,0,1,812,444.856Z"/>
  <path id="Retângulo_2_copiar_4" data-name="Retângulo 2 copiar 4" class="cls-2" d="M604,339.932h9a20,20,0,0,1,20,20V640.544a20,20,0,0,1-20,20h-9a20,20,0,0,1-20-20V359.932A20,20,0,0,1,604,339.932Z"/>
  <rect id="Retângulo_2_copiar" data-name="Retângulo 2 copiar" class="cls-1" x="366.5" y="324.531" width="49" height="350" rx="20" ry="20"/>
  <path id="Retângulo_2_copiar_5" data-name="Retângulo 2 copiar 5" class="cls-2" d="M282.5,397.016h9a20,20,0,0,1,20,20V582.531a20,20,0,0,1-20,20h-9a20,20,0,0,1-20-20V417.016A20,20,0,0,1,282.5,397.016Z"/>
  <rect id="Retângulo_2_copiar_6" data-name="Retângulo 2 copiar 6" class="cls-1" x="158.5" y="449.531" width="49" height="101" rx="20" ry="20"/>
  <rect id="Retângulo_2_copiar_2" data-name="Retângulo 2 copiar 2" class="cls-1" x="480" y="192.031" width="49" height="615.969" rx="20" ry="20"/>
</svg>
